<svg width="18" height="18" viewBox="0 0 18 18" fill="none" xmlns="http://www.w3.org/2000/svg">
<path d="M5.5 4C5.5 3.07174 5.86875 2.1815 6.52513 1.52513C7.1815 0.868749 8.07174 0.5 9 0.5C9.92826 0.5 10.8185 0.868749 11.4749 1.52513C12.1313 2.1815 12.5 3.07174 12.5 4C12.5 4.92826 12.1313 5.8185 11.4749 6.47487C10.8185 7.13125 9.92826 7.5 9 7.5C8.07174 7.5 7.1815 7.13125 6.52513 6.47487C5.86875 5.8185 5.5 4.92826 5.5 4ZM1.81802 11.818C2.66193 10.9741 3.80653 10.5 5 10.5H13C14.1935 10.5 15.3381 10.9741 16.182 11.818C17.0259 12.6619 17.5 13.8065 17.5 15C17.5 15.663 17.2366 16.2989 16.7678 16.7678C16.2989 17.2366 15.663 17.5 15 17.5H3C2.33696 17.5 1.70107 17.2366 1.23223 16.7678C0.763392 16.2989 0.5 15.663 0.5 15C0.5 13.8065 0.974106 12.6619 1.81802 11.818Z" stroke="#D9D9D9"/>
</svg>
