<svg width="24" height="24" viewBox="0 0 24 24" fill="none" xmlns="http://www.w3.org/2000/svg">
<path d="M12 1.74904L13.9767 5.91358L14.2674 6.52596L14.906 6.29848L19.2485 4.75148L17.7015 9.09402L17.474 9.73258L18.0864 10.0233L22.251 12L18.0864 13.9767L17.474 14.2674L17.7015 14.906L19.2485 19.2485L14.906 17.7015L14.2674 17.474L13.9767 18.0864L12 22.251L10.0233 18.0864L9.73258 17.474L9.09402 17.7015L4.75148 19.2485L6.29848 14.906L6.52596 14.2674L5.91358 13.9767L1.74904 12L5.91358 10.0233L6.52596 9.73258L6.29848 9.09402L4.75148 4.75148L9.09402 6.29848L9.73258 6.52596L10.0233 5.91358L12 1.74904Z" stroke="white" stroke-opacity="0.6" stroke-width="1.5"/>
</svg>
