<svg width="99" height="17" viewBox="0 0 99 17" fill="none" xmlns="http://www.w3.org/2000/svg">
<path d="M11.5597 4.712V17H6.25569V4.712H0.831686V0.487999H16.9597V4.712H11.5597ZM39.224 17H33.92V10.592L27.368 0.487999H33.464L36.632 5.984H36.728L39.896 0.487999H45.68L39.224 10.592V17ZM66.5197 0.487999C67.5437 0.487999 68.4557 0.727999 69.2557 1.208C70.0557 1.672 70.6797 2.32 71.1277 3.152C71.5757 3.968 71.7997 4.888 71.7997 5.912V6.224C71.7997 7.248 71.5757 8.176 71.1277 9.008C70.6797 9.84 70.0557 10.496 69.2557 10.976C68.4557 11.44 67.5437 11.672 66.5197 11.672H62.5597V17H57.2557V0.487999H66.5197ZM62.5597 7.808H64.7437C65.3037 7.808 65.7197 7.664 65.9917 7.376C66.2797 7.088 66.4237 6.696 66.4237 6.2V6.008C66.4237 5.496 66.2797 5.104 65.9917 4.832C65.7197 4.544 65.3037 4.4 64.7437 4.4H62.5597V7.808ZM84.176 0.487999H98.456V4.448H89.48V6.728H97.16V10.52H89.48V13.04H98.624V17H84.176V0.487999Z" fill="white"/>
</svg>
